<svg width="383" height="74" viewBox="0 0 383 74" fill="none" xmlns="http://www.w3.org/2000/svg">
<path d="M26.3037 14.718C23.9817 14.718 22.2537 15.393 21.1197 16.743C20.0397 18.093 19.4997 20.496 19.4997 23.952V33.51H32.9457V23.79C32.9457 21.522 32.6757 19.713 32.1357 18.363C31.5957 16.959 30.8397 16.014 29.8677 15.528C28.9497 14.988 27.7617 14.718 26.3037 14.718ZM32.9457 44.688H19.4997V48.981C19.4997 51.735 18.7707 53.76 17.3127 55.056C15.8547 56.352 13.3437 57 9.77967 57C8.26766 57 7.02566 56.784 6.05366 56.352C5.08166 55.92 4.21766 55.191 3.46166 54.165C2.75966 53.139 2.21966 51.654 1.84166 49.71C1.51766 47.712 1.24766 45.336 1.03166 42.582C0.869664 39.774 0.788664 36.237 0.788664 31.971C0.788664 28.245 1.16666 24.843 1.92266 21.765C2.73266 18.633 3.78566 15.987 5.08166 13.827C6.43166 11.667 7.94366 9.777 9.61766 8.157C11.2917 6.483 13.1007 5.187 15.0447 4.269C17.0427 3.351 18.9597 2.676 20.7957 2.244C22.6857 1.758 24.5757 1.51499 26.4657 1.51499C28.7337 1.51499 30.9747 1.839 33.1887 2.487C35.4027 3.081 37.6437 4.134 39.9117 5.646C42.1797 7.158 44.1507 9.048 45.8247 11.316C47.5527 13.53 48.9567 16.419 50.0367 19.983C51.1167 23.547 51.6567 27.543 51.6567 31.971C51.6567 39.099 51.3867 44.391 50.8467 47.847C50.3607 51.249 49.4967 53.625 48.2547 54.975C47.0667 56.325 45.2037 57 42.6657 57C39.1017 57 36.5907 56.352 35.1327 55.056C33.6747 53.76 32.9457 51.735 32.9457 48.981V44.688ZM78.2987 26.868V53.193C78.2987 59.241 77.1377 64.128 74.8157 67.854C72.4937 71.634 68.7947 73.524 63.7187 73.524C57.9947 73.524 53.3777 72.66 49.8677 70.932C46.3037 69.204 44.5217 67.368 44.5217 65.424C44.5217 63.966 45.0887 62.913 46.2227 62.265C47.3027 61.671 49.2197 61.374 51.9737 61.374C53.4857 61.374 54.6737 61.293 55.5377 61.131C56.4017 61.023 57.2657 60.699 58.1297 60.159C59.0477 59.673 59.6957 58.836 60.0737 57.648C60.5057 56.514 60.7217 55.002 60.7217 53.112V28.083C60.7217 24.735 61.5317 22.278 63.1517 20.712C64.8257 19.146 67.0127 18.363 69.7127 18.363C72.1967 18.363 74.2487 19.2 75.8687 20.874C77.4887 22.494 78.2987 24.492 78.2987 26.868ZM60.4787 7.104C60.4787 5.322 61.2347 3.864 62.7467 2.73C64.3127 1.542 66.4997 0.947997 69.3077 0.947997C75.1937 0.947997 78.1367 3 78.1367 7.104C78.1367 9.372 77.3807 10.965 75.8687 11.883C74.4107 12.801 72.2237 13.26 69.3077 13.26C66.7697 13.26 64.6637 12.774 62.9897 11.802C61.3157 10.83 60.4787 9.264 60.4787 7.104ZM103.963 39.909C103.963 42.987 105.151 44.526 107.527 44.526C108.337 44.526 109.039 44.283 109.633 43.797C110.281 43.257 110.767 42.528 111.091 41.61C111.415 40.692 111.577 39.639 111.577 38.451V27.597C111.577 25.761 111.901 24.168 112.549 22.818C113.197 21.414 114.142 20.334 115.384 19.578C116.626 18.822 118.084 18.444 119.758 18.444C122.674 18.444 124.942 19.092 126.562 20.388C128.182 21.63 128.992 23.952 128.992 27.354V48.414C128.992 51.708 128.317 53.976 126.967 55.218C125.617 56.46 123.241 57.081 119.839 57.081C118.381 57.081 117.139 56.946 116.113 56.676C115.087 56.352 114.25 55.893 113.602 55.299C113.008 54.705 112.549 53.922 112.225 52.95C110.011 54.408 107.662 55.434 105.178 56.028C102.748 56.622 100.021 56.919 96.997 56.919C93.163 56.919 90.409 55.434 88.735 52.464C87.061 49.44 86.224 44.499 86.224 37.641C86.224 34.239 86.305 31.485 86.467 29.379C86.629 27.219 86.872 25.383 87.196 23.871C87.574 22.305 88.114 21.144 88.816 20.388C89.572 19.632 90.436 19.092 91.408 18.768C92.434 18.444 93.757 18.282 95.377 18.282C98.401 18.282 100.561 18.849 101.857 19.983C103.207 21.117 103.882 22.818 103.882 25.086L103.963 39.909ZM180.022 44.85C180.022 49.224 179.293 52.356 177.835 54.246C176.377 56.082 174.136 57 171.112 57C167.656 57 165.28 55.92 163.984 53.76C160.474 56.298 156.235 57.567 151.267 57.567C147.055 57.567 143.545 55.839 140.737 52.383C137.929 48.873 136.525 44.094 136.525 38.046C136.525 31.89 137.902 27.003 140.656 23.385C143.41 19.713 146.947 17.877 151.267 17.877C155.155 17.877 158.8 19.119 162.202 21.603V11.235C162.202 7.941 163.012 5.511 164.632 3.945C166.252 2.325 168.412 1.51499 171.112 1.51499C174.082 1.51499 176.296 2.109 177.754 3.297C179.266 4.485 180.022 6.888 180.022 10.506V44.85ZM162.364 45.336L162.283 30.189C161.365 28.677 160.177 27.921 158.719 27.921C157.801 27.921 156.964 28.434 156.208 29.46C155.506 30.486 154.966 31.755 154.588 33.267C154.21 34.779 154.021 36.372 154.021 38.046C154.021 40.53 154.426 42.744 155.236 44.688C156.046 46.632 157.18 47.604 158.638 47.604C158.908 47.604 159.178 47.577 159.448 47.523C159.718 47.469 159.961 47.415 160.177 47.361C160.393 47.253 160.609 47.145 160.825 47.037C161.041 46.875 161.23 46.713 161.392 46.551C161.554 46.389 161.716 46.2 161.878 45.984C162.04 45.768 162.202 45.552 162.364 45.336ZM201.973 57.486C197.707 57.486 194.17 55.758 191.362 52.302C188.554 48.792 187.15 44.013 187.15 37.965C187.15 31.809 188.527 26.922 191.281 23.304C194.089 19.632 197.653 17.796 201.973 17.796C206.347 17.796 210.397 19.335 214.123 22.413C215.581 19.713 217.93 18.363 221.17 18.363C224.086 18.363 226.354 19.011 227.974 20.307C229.594 21.549 230.404 23.871 230.404 27.273V48.333C230.404 51.573 229.729 53.841 228.379 55.137C227.029 56.379 224.653 57 221.251 57C217.687 57 215.338 56.001 214.204 54.003C210.748 56.325 206.671 57.486 201.973 57.486ZM212.989 30.189C212.071 28.623 210.883 27.84 209.425 27.84C208.021 27.84 206.887 28.866 206.023 30.918C205.159 32.97 204.727 35.319 204.727 37.965C204.727 40.449 205.132 42.663 205.942 44.607C206.752 46.551 207.886 47.523 209.344 47.523C210.856 47.523 212.071 46.794 212.989 45.336V30.189ZM285.124 14.718C282.802 14.718 281.074 15.393 279.94 16.743C278.86 18.093 278.32 20.496 278.32 23.952V33.51H291.766V23.79C291.766 21.522 291.496 19.713 290.956 18.363C290.416 16.959 289.66 16.014 288.688 15.528C287.77 14.988 286.582 14.718 285.124 14.718ZM291.766 44.688H278.32V48.981C278.32 51.735 277.591 53.76 276.133 55.056C274.675 56.352 272.164 57 268.6 57C267.088 57 265.846 56.784 264.874 56.352C263.902 55.92 263.038 55.191 262.282 54.165C261.58 53.139 261.04 51.654 260.662 49.71C260.338 47.712 260.068 45.336 259.852 42.582C259.69 39.774 259.609 36.237 259.609 31.971C259.609 28.245 259.987 24.843 260.743 21.765C261.553 18.633 262.606 15.987 263.902 13.827C265.252 11.667 266.764 9.777 268.438 8.157C270.112 6.483 271.921 5.187 273.865 4.269C275.863 3.351 277.78 2.676 279.616 2.244C281.506 1.758 283.396 1.51499 285.286 1.51499C287.554 1.51499 289.795 1.839 292.009 2.487C294.223 3.081 296.464 4.134 298.732 5.646C301 7.158 302.971 9.048 304.645 11.316C306.373 13.53 307.777 16.419 308.857 19.983C309.937 23.547 310.477 27.543 310.477 31.971C310.477 39.099 310.207 44.391 309.667 47.847C309.181 51.249 308.317 53.625 307.075 54.975C305.887 56.325 304.024 57 301.486 57C297.922 57 295.411 56.352 293.953 55.056C292.495 53.76 291.766 51.735 291.766 48.981V44.688ZM338.253 45.498H335.337C335.337 48.306 334.527 50.925 332.907 53.355C331.287 55.785 329.127 57 326.427 57C323.403 57 321.162 56.163 319.704 54.489C318.3 52.761 317.598 49.737 317.598 45.417V12.126C317.598 9.804 317.976 7.941 318.732 6.537C319.488 5.079 320.46 4.053 321.648 3.459C322.89 2.865 324.483 2.514 326.427 2.406C329.775 2.406 332.016 3.54 333.15 5.808C334.284 8.022 334.851 11.883 334.851 17.391C334.851 21.657 334.608 25.41 334.122 28.65C334.5 29.838 335.715 30.432 337.767 30.432C339.063 30.432 339.927 30.162 340.359 29.622C340.845 29.028 341.088 27.867 341.088 26.139C341.088 23.601 341.736 21.765 343.032 20.631C344.382 19.497 346.65 18.93 349.836 18.93C353.184 18.93 355.425 19.551 356.559 20.793C357.747 21.981 358.341 24.168 358.341 27.354C358.341 30.702 357.342 33.294 355.344 35.13C353.346 36.966 351.105 37.884 348.621 37.884C351.159 37.884 353.4 38.667 355.344 40.233C357.342 41.745 358.341 44.04 358.341 47.118C358.341 51.222 357.774 53.895 356.64 55.137C355.56 56.379 353.292 57 349.836 57C346.65 57 344.382 56.433 343.032 55.299C341.736 54.111 341.088 52.275 341.088 49.791C341.088 48.549 340.98 47.631 340.764 47.037C340.548 46.389 340.251 45.984 339.873 45.822C339.549 45.606 339.009 45.498 338.253 45.498ZM364.498 7.104C364.498 5.322 365.254 3.864 366.766 2.73C368.332 1.542 370.519 0.947997 373.327 0.947997C379.213 0.947997 382.156 3 382.156 7.104C382.156 9.372 381.4 10.965 379.888 11.883C378.43 12.801 376.243 13.26 373.327 13.26C370.789 13.26 368.683 12.774 367.009 11.802C365.335 10.83 364.498 9.264 364.498 7.104ZM382.075 48.333C382.075 51.573 381.4 53.841 380.05 55.137C378.7 56.379 376.324 57 372.922 57C369.736 57 367.549 56.271 366.361 54.813C365.227 53.301 364.66 50.844 364.66 47.442V27.516C364.66 24.762 365.389 22.548 366.847 20.874C368.359 19.2 370.357 18.363 372.841 18.363C375.757 18.363 378.025 19.011 379.645 20.307C381.265 21.549 382.075 23.871 382.075 27.273V48.333Z" fill="#FAFAFA"/>
</svg>
